<svg xmlns="http://www.w3.org/2000/svg" xmlns:xlink="http://www.w3.org/1999/xlink" version="1.1" style="shape-rendering:geometricPrecision; text-rendering:geometricPrecision; image-rendering:optimizeQuality; fill-rule:evenodd; clip-rule:evenodd" viewBox="129.38 3.48 352.25 401.04">
<g><path style="opacity:0.866" fill="#2b6033" d="M 477.5,4.5 C 363.831,4.16668 250.165,4.50001 136.5,5.5C 134.892,6.31844 133.225,6.9851 131.5,7.5C 130.503,14.4684 130.17,21.4684 130.5,28.5C 139.989,26.9157 149.656,26.249 159.5,26.5C 159.5,26.8333 159.5,27.1667 159.5,27.5C 149.564,28.868 139.564,29.868 129.5,30.5C 129.334,22.4931 129.5,14.4931 130,6.5C 130.833,5.66667 131.667,4.83333 132.5,4C 247.667,3.16739 362.667,3.33406 477.5,4.5 Z"/></g>
<g><path style="opacity:1" fill="#2d783b" d="M 477.5,4.5 C 480.358,6.71166 481.691,9.71166 481.5,13.5C 480.883,13.6107 480.383,13.944 480,14.5C 479.667,47.5 479.333,80.5 479,113.5C 477.644,114.38 476.144,114.714 474.5,114.5C 449.697,94.8934 423.363,77.3934 395.5,62C 379.885,54.6842 363.885,48.3509 347.5,43C 333.062,39.1457 318.395,36.6457 303.5,35.5C 303.389,34.8826 303.056,34.3826 302.5,34C 285.727,29.9852 268.727,26.9852 251.5,25C 223.5,24.3333 195.5,24.3333 167.5,25C 166.263,25.2321 165.263,25.7321 164.5,26.5C 162.833,26.5 161.167,26.5 159.5,26.5C 149.656,26.249 139.989,26.9157 130.5,28.5C 130.17,21.4684 130.503,14.4684 131.5,7.5C 133.225,6.9851 134.892,6.31844 136.5,5.5C 250.165,4.50001 363.831,4.16668 477.5,4.5 Z"/></g>
<g><path style="opacity:1" fill="#596d30" d="M 303.5,35.5 C 301.833,35.5 300.167,35.5 298.5,35.5C 296.333,34.3589 294,33.3589 291.5,32.5C 281.359,30.3564 271.026,29.0231 260.5,28.5C 260.167,28.5 259.833,28.5 259.5,28.5C 253.02,27.3484 246.354,26.515 239.5,26C 220.17,25.5 200.836,25.3334 181.5,25.5C 175.797,25.3748 170.13,25.7081 164.5,26.5C 165.263,25.7321 166.263,25.2321 167.5,25C 195.5,24.3333 223.5,24.3333 251.5,25C 268.727,26.9852 285.727,29.9852 302.5,34C 303.056,34.3826 303.389,34.8826 303.5,35.5 Z"/></g>
<g><path style="opacity:1" fill="#9e6e32" d="M 181.5,25.5 C 174.412,27.2389 167.079,27.9056 159.5,27.5C 159.5,27.1667 159.5,26.8333 159.5,26.5C 161.167,26.5 162.833,26.5 164.5,26.5C 170.13,25.7081 175.797,25.3748 181.5,25.5 Z"/></g>
<g><path style="opacity:1" fill="#ef5e24" d="M 259.5,28.5 C 259.833,28.5 260.167,28.5 260.5,28.5C 269.473,29.9159 278.473,31.5825 287.5,33.5C 282.015,34.1668 276.681,34.8335 271.5,35.5C 236.984,40.8666 206.651,55.0332 180.5,78C 177.607,80.3913 175.273,83.2246 173.5,86.5C 170.548,88.7851 167.882,91.4517 165.5,94.5C 163.824,97.8189 161.824,100.819 159.5,103.5C 156.12,106.608 153.454,110.275 151.5,114.5C 150.548,116.045 150.215,117.712 150.5,119.5C 146.183,127.345 142.017,135.345 138,143.5C 137.256,146.89 136.423,150.223 135.5,153.5C 134.624,153.369 133.957,153.702 133.5,154.5C 132.855,157.228 132.021,159.895 131,162.5C 130.5,119.168 130.333,75.8346 130.5,32.5C 148.338,29.9031 166.338,28.0698 184.5,27C 209.528,26.2311 234.528,26.7311 259.5,28.5 Z"/></g>
<g><path style="opacity:1" fill="#d87748" d="M 260.5,28.5 C 271.026,29.0231 281.359,30.3564 291.5,32.5C 294,33.3589 296.333,34.3589 298.5,35.5C 289.5,35.5 280.5,35.5 271.5,35.5C 276.681,34.8335 282.015,34.1668 287.5,33.5C 278.473,31.5825 269.473,29.9159 260.5,28.5 Z"/></g>
<g><path style="opacity:1" fill="#fcfdfb" d="M 271.5,35.5 C 280.5,35.5 289.5,35.5 298.5,35.5C 300.167,35.5 301.833,35.5 303.5,35.5C 318.395,36.6457 333.062,39.1457 347.5,43C 363.885,48.3509 379.885,54.6842 395.5,62C 423.363,77.3934 449.697,94.8934 474.5,114.5C 475.833,116.167 477.167,117.833 478.5,119.5C 470.474,116.448 462.474,113.448 454.5,110.5C 433.015,101.954 411.015,94.6204 388.5,88.5C 372.941,84.0271 357.275,80.0271 341.5,76.5C 332.051,72.4804 322.051,70.6471 311.5,71C 308.57,70.3937 305.737,69.5604 303,68.5C 287.09,68.2675 271.257,68.6009 255.5,69.5C 226.964,69.5403 199.631,75.2069 173.5,86.5C 175.273,83.2246 177.607,80.3913 180.5,78C 206.651,55.0332 236.984,40.8666 271.5,35.5 Z"/></g>
<g><path style="opacity:0.956" fill="#326738" d="M 481.5,13.5 C 481.5,48.8333 481.5,84.1667 481.5,119.5C 480.5,119.5 479.5,119.5 478.5,119.5C 477.167,117.833 475.833,116.167 474.5,114.5C 476.144,114.714 477.644,114.38 479,113.5C 479.333,80.5 479.667,47.5 480,14.5C 480.383,13.944 480.883,13.6107 481.5,13.5 Z"/></g>
<g><path style="opacity:1" fill="#e1f3e3" d="M 255.5,69.5 C 271.257,68.6009 287.09,68.2675 303,68.5C 305.737,69.5604 308.57,70.3937 311.5,71C 322.051,70.6471 332.051,72.4804 341.5,76.5C 313.056,71.6297 284.389,69.2964 255.5,69.5 Z"/></g>
<g><path style="opacity:1" fill="#2f783a" d="M 255.5,69.5 C 284.389,69.2964 313.056,71.6297 341.5,76.5C 357.275,80.0271 372.941,84.0271 388.5,88.5C 346.168,87.5771 305.168,93.9105 265.5,107.5C 260.399,108.143 255.399,109.309 250.5,111C 240.954,114.616 231.62,118.449 222.5,122.5C 207.027,128.27 192.027,135.103 177.5,143C 176.619,143.708 175.953,144.542 175.5,145.5C 164.21,150.476 153.543,156.476 143.5,163.5C 138.971,165.927 134.638,168.594 130.5,171.5C 130.629,169.784 130.962,168.117 131.5,166.5C 132.681,162.109 134.014,157.776 135.5,153.5C 136.423,150.223 137.256,146.89 138,143.5C 142.017,135.345 146.183,127.345 150.5,119.5C 153.865,114.438 156.865,109.105 159.5,103.5C 161.824,100.819 163.824,97.8189 165.5,94.5C 167.882,91.4517 170.548,88.7851 173.5,86.5C 199.631,75.2069 226.964,69.5403 255.5,69.5 Z"/></g>
<g><path style="opacity:0.205" fill="#cb6734" d="M 181.5,25.5 C 200.836,25.3334 220.17,25.5 239.5,26C 246.354,26.515 253.02,27.3484 259.5,28.5C 234.528,26.7311 209.528,26.2311 184.5,27C 166.338,28.0698 148.338,29.9031 130.5,32.5C 130.333,75.8346 130.5,119.168 131,162.5C 132.021,159.895 132.855,157.228 133.5,154.5C 133.957,153.702 134.624,153.369 135.5,153.5C 134.014,157.776 132.681,162.109 131.5,166.5C 130.833,166.5 130.167,166.5 129.5,166.5C 129.5,121.167 129.5,75.8333 129.5,30.5C 139.564,29.868 149.564,28.868 159.5,27.5C 167.079,27.9056 174.412,27.2389 181.5,25.5 Z"/></g>
<g><path style="opacity:1" fill="#74b941" d="M 388.5,88.5 C 411.015,94.6204 433.015,101.954 454.5,110.5C 456.971,111.736 458.971,113.569 460.5,116C 459.663,117.011 459.33,118.178 459.5,119.5C 458.167,119.5 456.833,119.5 455.5,119.5C 455.734,112.281 453.4,111.114 448.5,116C 450.174,117.506 451.174,119.339 451.5,121.5C 386.167,121.5 320.833,121.5 255.5,121.5C 255.657,120.127 255.49,118.793 255,117.5C 250.808,118.3 246.641,118.634 242.5,118.5C 241.692,118.192 241.025,117.692 240.5,117C 245.263,117.081 249.263,115.415 252.5,112C 255.5,111.667 258.5,111.333 261.5,111C 263.544,110.502 264.878,109.335 265.5,107.5C 305.168,93.9105 346.168,87.5771 388.5,88.5 Z"/></g>
<g><path style="opacity:1" fill="#a96d33" d="M 159.5,103.5 C 156.865,109.105 153.865,114.438 150.5,119.5C 150.215,117.712 150.548,116.045 151.5,114.5C 153.454,110.275 156.12,106.608 159.5,103.5 Z"/></g>
<g><path style="opacity:1" fill="#6cb640" d="M 265.5,107.5 C 264.878,109.335 263.544,110.502 261.5,111C 258.5,111.333 255.5,111.667 252.5,112C 249.263,115.415 245.263,117.081 240.5,117C 241.025,117.692 241.692,118.192 242.5,118.5C 246.641,118.634 250.808,118.3 255,117.5C 255.49,118.793 255.657,120.127 255.5,121.5C 320.833,121.5 386.167,121.5 451.5,121.5C 451.174,119.339 450.174,117.506 448.5,116C 453.4,111.114 455.734,112.281 455.5,119.5C 456.833,119.5 458.167,119.5 459.5,119.5C 459.33,118.178 459.663,117.011 460.5,116C 458.971,113.569 456.971,111.736 454.5,110.5C 462.474,113.448 470.474,116.448 478.5,119.5C 479.5,119.5 480.5,119.5 481.5,119.5C 481.34,123.622 481.34,127.956 481.5,132.5C 480.85,132.196 480.183,131.863 479.5,131.5C 478.548,133.045 478.215,134.712 478.5,136.5C 393.831,136.833 309.164,136.5 224.5,135.5C 223.754,134.264 223.421,132.93 223.5,131.5C 222.167,131.5 220.833,131.5 219.5,131.5C 219.773,133.451 219.107,134.951 217.5,136C 214.833,136.667 212.167,136.667 209.5,136C 209.965,133.817 211.132,131.65 213,129.5C 215.194,126.819 218.027,125.319 221.5,125C 222.252,124.329 222.586,123.496 222.5,122.5C 231.62,118.449 240.954,114.616 250.5,111C 255.399,109.309 260.399,108.143 265.5,107.5 Z"/></g>
<g><path style="opacity:1" fill="#66b340" d="M 222.5,122.5 C 222.586,123.496 222.252,124.329 221.5,125C 218.027,125.319 215.194,126.819 213,129.5C 211.132,131.65 209.965,133.817 209.5,136C 212.167,136.667 214.833,136.667 217.5,136C 219.107,134.951 219.773,133.451 219.5,131.5C 220.833,131.5 222.167,131.5 223.5,131.5C 223.421,132.93 223.754,134.264 224.5,135.5C 309.164,136.5 393.831,136.833 478.5,136.5C 478.215,134.712 478.548,133.045 479.5,131.5C 480.183,131.863 480.85,132.196 481.5,132.5C 481.5,133.167 481.5,133.833 481.5,134.5C 480.883,134.611 480.383,134.944 480,135.5C 479.5,143.493 479.334,151.493 479.5,159.5C 478.566,158.432 478.232,157.099 478.5,155.5C 374.833,155.667 271.166,155.5 167.5,155C 166.62,153.644 166.286,152.144 166.5,150.5C 170.244,150.072 173.244,148.405 175.5,145.5C 175.953,144.542 176.619,143.708 177.5,143C 192.027,135.103 207.027,128.27 222.5,122.5 Z"/></g>
<g><path style="opacity:1" fill="#60b041" d="M 175.5,145.5 C 173.244,148.405 170.244,150.072 166.5,150.5C 166.286,152.144 166.62,153.644 167.5,155C 271.166,155.5 374.833,155.667 478.5,155.5C 478.232,157.099 478.566,158.432 479.5,159.5C 479.5,163.5 479.5,167.5 479.5,171.5C 435.487,170.749 391.487,170.416 347.5,170.5C 344.833,171.167 342.167,171.833 339.5,172.5C 335.558,171.507 331.558,170.84 327.5,170.5C 268.507,171.635 209.507,171.802 150.5,171C 151.888,170.111 151.722,169.611 150,169.5C 144.288,171.626 142.121,169.626 143.5,163.5C 153.543,156.476 164.21,150.476 175.5,145.5 Z"/></g>
<g><path style="opacity:1" fill="#59ad42" d="M 481.5,134.5 C 481.5,160.167 481.5,185.833 481.5,211.5C 479.901,206.431 479.067,201.098 479,195.5C 478.895,199.36 478.062,203.026 476.5,206.5C 479.227,208.884 479.06,210.884 476,212.5C 472.793,211.289 471.126,208.956 471,205.5C 470.667,205.833 470.333,206.167 470,206.5C 469.167,204.833 468.333,203.167 467.5,201.5C 464.682,198.418 461.849,195.418 459,192.5C 457.951,193.517 456.784,193.684 455.5,193C 453.743,190.154 451.743,187.488 449.5,185C 446.522,184.304 443.522,183.804 440.5,183.5C 424.835,177.799 408.835,176.132 392.5,178.5C 390.5,178.5 388.5,178.5 386.5,178.5C 384.5,178.5 382.5,178.5 380.5,178.5C 377.881,178.232 375.381,178.565 373,179.5C 372.503,182.146 372.336,184.813 372.5,187.5C 372.5,188.5 372.5,189.5 372.5,190.5C 369.234,190.567 367.734,188.901 368,185.5C 365.055,182.222 361.555,179.722 357.5,178C 349.895,176.591 342.228,175.758 334.5,175.5C 331.087,175.517 328.087,176.184 325.5,177.5C 323.5,177.5 321.5,177.5 319.5,177.5C 309.824,178.831 300.824,182.164 292.5,187.5C 289.168,186.461 286.668,184.461 285,181.5C 283.753,183.881 283.42,183.547 284,180.5C 284.98,179.019 286.147,177.685 287.5,176.5C 286.333,176.167 285.167,175.833 284,175.5C 281.499,176.249 279.165,177.249 277,178.5C 275.596,178.491 274.43,177.991 273.5,177C 265.467,176.737 257.467,176.237 249.5,175.5C 249.5,176.5 249.5,177.5 249.5,178.5C 249.5,178.833 249.5,179.167 249.5,179.5C 248.5,179.5 247.5,179.5 246.5,179.5C 246.665,182.518 246.498,185.518 246,188.5C 242.362,184.541 240.862,185.541 241.5,191.5C 240.448,191.649 239.448,191.483 238.5,191C 239.136,188.606 239.136,186.106 238.5,183.5C 236.857,183.48 235.524,184.147 234.5,185.5C 230.39,183.96 228.223,180.96 228,176.5C 227.275,175.941 226.442,175.608 225.5,175.5C 215.807,176.21 206.14,177.21 196.5,178.5C 194.889,181.22 194.056,184.22 194,187.5C 191.365,189.484 190.865,191.984 192.5,195C 190.924,199.682 190.257,204.516 190.5,209.5C 187.793,213.656 186.46,218.322 186.5,223.5C 185.5,223.5 184.5,223.5 183.5,223.5C 183.412,218.464 182.912,213.464 182,208.5C 181.667,208.833 181.333,209.167 181,209.5C 180.091,198.805 177.591,188.638 173.5,179C 174.738,179.077 175.738,178.911 176.5,178.5C 165.7,175.848 155.033,175.848 144.5,178.5C 143.281,182.013 143.281,185.68 144.5,189.5C 141.657,195.47 140.99,201.637 142.5,208C 141.844,218.439 141.177,228.939 140.5,239.5C 139.871,227.141 139.037,214.808 138,202.5C 137.824,205.882 137.324,209.215 136.5,212.5C 135.719,211.271 135.219,209.938 135,208.5C 134.378,212.612 133.378,216.612 132,220.5C 131.83,211.324 131.33,202.324 130.5,193.5C 130.5,186.167 130.5,178.833 130.5,171.5C 134.638,168.594 138.971,165.927 143.5,163.5C 142.121,169.626 144.288,171.626 150,169.5C 151.722,169.611 151.888,170.111 150.5,171C 209.507,171.802 268.507,171.635 327.5,170.5C 331.558,170.84 335.558,171.507 339.5,172.5C 342.167,171.833 344.833,171.167 347.5,170.5C 391.487,170.416 435.487,170.749 479.5,171.5C 479.5,167.5 479.5,163.5 479.5,159.5C 479.334,151.493 479.5,143.493 480,135.5C 480.383,134.944 480.883,134.611 481.5,134.5 Z"/></g>
<g><path style="opacity:1" fill="#fafdfa" d="M 319.5,177.5 C 321.5,177.5 323.5,177.5 325.5,177.5C 336.681,176.888 347.681,177.888 358.5,180.5C 358.167,181.833 357.833,183.167 357.5,184.5C 356.31,189.632 354.81,194.632 353,199.5C 335.373,191.647 320.04,194.647 307,208.5C 301,221.833 301,235.167 307,248.5C 309.037,250.706 311.203,252.706 313.5,254.5C 316.943,258.222 321.277,260.389 326.5,261C 332.167,261.667 337.833,261.667 343.5,261C 345.058,260.79 346.391,260.29 347.5,259.5C 349.861,259.326 352.194,258.993 354.5,258.5C 354.5,258.833 354.5,259.167 354.5,259.5C 354.862,264.95 355.862,270.283 357.5,275.5C 357.376,276.107 357.043,276.44 356.5,276.5C 344.435,279.981 332.102,281.315 319.5,280.5C 307.344,278.254 297.011,272.587 288.5,263.5C 283.476,256.129 280.142,248.129 278.5,239.5C 275.192,216.903 282.525,198.736 300.5,185C 306.57,181.593 312.904,179.093 319.5,177.5 Z"/></g>
<g><path style="opacity:1" fill="#fbfdfb" d="M 386.5,178.5 C 388.5,178.5 390.5,178.5 392.5,178.5C 411.035,177.089 428.702,180.089 445.5,187.5C 449.122,189.787 452.455,192.453 455.5,195.5C 458.699,201.234 461.365,207.234 463.5,213.5C 464.331,220.131 464.664,226.798 464.5,233.5C 462.44,253.135 452.44,266.968 434.5,275C 426.3,277.301 417.967,278.801 409.5,279.5C 398.81,279.679 388.143,279.345 377.5,278.5C 376.181,262.386 375.515,246.053 375.5,229.5C 375.667,213.5 375.833,197.5 376,181.5C 379.61,180.552 383.11,179.552 386.5,178.5 Z"/></g>
<g><path style="opacity:1" fill="#ddf3d8" d="M 392.5,178.5 C 408.835,176.132 424.835,177.799 440.5,183.5C 442.349,184.593 444.016,185.926 445.5,187.5C 428.702,180.089 411.035,177.089 392.5,178.5 Z"/></g>
<g><path style="opacity:1" fill="#fafdfa" d="M 144.5,178.5 C 152.528,178.169 160.528,178.502 168.5,179.5C 168.863,180.183 169.196,180.85 169.5,181.5C 174.089,204.698 177.922,228.032 181,251.5C 181.333,252.167 181.667,252.833 182,253.5C 182.943,248.84 183.777,244.173 184.5,239.5C 186.79,229.656 188.79,219.656 190.5,209.5C 192.941,199.312 195.274,188.979 197.5,178.5C 205.833,178.5 214.167,178.5 222.5,178.5C 223.038,180.117 223.371,181.784 223.5,183.5C 226.86,205.609 230.86,227.609 235.5,249.5C 236.706,245.928 237.373,242.262 237.5,238.5C 239.022,233.727 240.022,228.727 240.5,223.5C 243.866,209.026 246.866,194.359 249.5,179.5C 249.5,179.167 249.5,178.833 249.5,178.5C 257.573,177.868 265.24,178.535 272.5,180.5C 271.89,181.391 271.557,182.391 271.5,183.5C 271.5,184.167 271.5,184.833 271.5,185.5C 262.744,216.186 254.744,247.186 247.5,278.5C 239.167,278.5 230.833,278.5 222.5,278.5C 220.543,267.851 218.21,257.185 215.5,246.5C 214.581,239.627 213.247,232.96 211.5,226.5C 211.737,225.209 211.404,224.209 210.5,223.5C 210.353,217.978 209.52,212.645 208,207.5C 203.26,231.211 198.426,254.878 193.5,278.5C 186.167,278.5 178.833,278.5 171.5,278.5C 170.167,278.5 168.833,278.5 167.5,278.5C 162.961,259.344 158.294,240.344 153.5,221.5C 150.629,207.144 147.629,192.811 144.5,178.5 Z"/></g>
<g><path style="opacity:1" fill="#55a645" d="M 249.5,179.5 C 246.866,194.359 243.866,209.026 240.5,223.5C 238.964,225.025 237.964,227.025 237.5,229.5C 233.366,214.052 229.866,198.385 227,182.5C 225.306,181.301 223.806,179.968 222.5,178.5C 214.167,178.5 205.833,178.5 197.5,178.5C 195.274,188.979 192.941,199.312 190.5,209.5C 190.257,204.516 190.924,199.682 192.5,195C 190.865,191.984 191.365,189.484 194,187.5C 194.056,184.22 194.889,181.22 196.5,178.5C 206.14,177.21 215.807,176.21 225.5,175.5C 226.442,175.608 227.275,175.941 228,176.5C 228.223,180.96 230.39,183.96 234.5,185.5C 235.524,184.147 236.857,183.48 238.5,183.5C 239.136,186.106 239.136,188.606 238.5,191C 239.448,191.483 240.448,191.649 241.5,191.5C 240.862,185.541 242.362,184.541 246,188.5C 246.498,185.518 246.665,182.518 246.5,179.5C 247.5,179.5 248.5,179.5 249.5,179.5 Z"/></g>
<g><path style="opacity:1" fill="#57a647" d="M 319.5,177.5 C 312.904,179.093 306.57,181.593 300.5,185C 282.525,198.736 275.192,216.903 278.5,239.5C 276.796,232.524 275.796,225.19 275.5,217.5C 274.726,216.289 273.893,216.289 273,217.5C 272.667,219.5 272.333,221.5 272,223.5C 270.224,225.211 269.058,227.211 268.5,229.5C 269.618,221.173 270.785,212.84 272,204.5C 275.448,197.48 276.615,190.147 275.5,182.5C 274.643,181.575 273.643,180.908 272.5,180.5C 265.24,178.535 257.573,177.868 249.5,178.5C 249.5,177.5 249.5,176.5 249.5,175.5C 257.467,176.237 265.467,176.737 273.5,177C 274.43,177.991 275.596,178.491 277,178.5C 279.165,177.249 281.499,176.249 284,175.5C 285.167,175.833 286.333,176.167 287.5,176.5C 286.147,177.685 284.98,179.019 284,180.5C 283.42,183.547 283.753,183.881 285,181.5C 286.668,184.461 289.168,186.461 292.5,187.5C 300.824,182.164 309.824,178.831 319.5,177.5 Z"/></g>
<g><path style="opacity:1" fill="#2c4d26" d="M 357.5,184.5 C 359.89,184.685 360.89,186.018 360.5,188.5C 359.375,192.123 358.375,195.79 357.5,199.5C 353.35,200.635 349.35,200.135 345.5,198C 328.472,195.778 315.805,202.111 307.5,217C 306.713,219.099 306.38,221.266 306.5,223.5C 304.687,234.913 307.02,245.246 313.5,254.5C 311.203,252.706 309.037,250.706 307,248.5C 301,235.167 301,221.833 307,208.5C 320.04,194.647 335.373,191.647 353,199.5C 354.81,194.632 356.31,189.632 357.5,184.5 Z"/></g>
<g><path style="opacity:1" fill="#37742b" d="M 358.5,180.5 C 362.094,181.462 363.76,183.795 363.5,187.5C 363.112,192.949 361.779,198.116 359.5,203C 352.55,202.355 345.55,201.522 338.5,200.5C 333.734,200.133 329.401,201.133 325.5,203.5C 320.521,204.297 316.355,206.63 313,210.5C 310.483,214.795 308.317,219.129 306.5,223.5C 306.38,221.266 306.713,219.099 307.5,217C 315.805,202.111 328.472,195.778 345.5,198C 349.35,200.135 353.35,200.635 357.5,199.5C 358.375,195.79 359.375,192.123 360.5,188.5C 360.89,186.018 359.89,184.685 357.5,184.5C 357.833,183.167 358.167,181.833 358.5,180.5 Z"/></g>
<g><path style="opacity:1" fill="#4ea642" d="M 372.5,190.5 C 372.879,201.555 372.379,212.555 371,223.5C 370.667,222.167 370.333,220.833 370,219.5C 369.696,221.441 368.863,223.107 367.5,224.5C 351.107,224.853 334.941,225.853 319,227.5C 317.599,225.808 315.766,225.141 313.5,225.5C 313.337,223.143 313.503,220.81 314,218.5C 315.527,215.447 317.027,212.447 318.5,209.5C 318.511,207.983 319.177,206.816 320.5,206C 322.491,205.626 324.158,204.793 325.5,203.5C 329.401,201.133 333.734,200.133 338.5,200.5C 345.55,201.522 352.55,202.355 359.5,203C 361.779,198.116 363.112,192.949 363.5,187.5C 363.76,183.795 362.094,181.462 358.5,180.5C 347.681,177.888 336.681,176.888 325.5,177.5C 328.087,176.184 331.087,175.517 334.5,175.5C 342.228,175.758 349.895,176.591 357.5,178C 361.555,179.722 365.055,182.222 368,185.5C 367.734,188.901 369.234,190.567 372.5,190.5 Z"/></g>
<g><path style="opacity:1" fill="#3a7631" d="M 222.5,178.5 C 223.806,179.968 225.306,181.301 227,182.5C 229.866,198.385 233.366,214.052 237.5,229.5C 237.964,227.025 238.964,225.025 240.5,223.5C 240.022,228.727 239.022,233.727 237.5,238.5C 235.156,233.299 233.322,227.965 232,222.5C 229.388,209.315 226.555,196.315 223.5,183.5C 223.371,181.784 223.038,180.117 222.5,178.5 Z"/></g>
<g><path style="opacity:1" fill="#47963f" d="M 438.5,215.5 C 439.784,223.629 439.784,231.629 438.5,239.5C 438.666,232.825 438.5,226.158 438,219.5C 435.95,217.107 434.283,214.441 433,211.5C 428.684,209.607 424.517,207.607 420.5,205.5C 419.325,206.855 418.325,206.688 417.5,205C 413.801,204.666 410.301,204.499 407,204.5C 405.87,211.232 405.37,218.065 405.5,225C 405.827,237.28 406.161,249.447 406.5,261.5C 405.167,261.5 403.833,261.5 402.5,261.5C 402.333,241.831 402.5,222.164 403,202.5C 403.5,202 404,201.5 404.5,201C 413.204,199.664 421.537,200.664 429.5,204C 433.297,207.292 436.297,211.125 438.5,215.5 Z"/></g>
<g><path style="opacity:1" fill="#4c9640" d="M 190.5,209.5 C 188.79,219.656 186.79,229.656 184.5,239.5C 182.805,237.268 181.638,234.601 181,231.5C 179.133,216.373 176.466,201.373 173,186.5C 171.374,185.045 170.208,183.378 169.5,181.5C 169.196,180.85 168.863,180.183 168.5,179.5C 160.528,178.502 152.528,178.169 144.5,178.5C 155.033,175.848 165.7,175.848 176.5,178.5C 175.738,178.911 174.738,179.077 173.5,179C 177.591,188.638 180.091,198.805 181,209.5C 181.333,209.167 181.667,208.833 182,208.5C 182.912,213.464 183.412,218.464 183.5,223.5C 184.5,223.5 185.5,223.5 186.5,223.5C 186.46,218.322 187.793,213.656 190.5,209.5 Z"/></g>
<g><path style="opacity:1" fill="#23411e" d="M 415.5,195.5 C 411.688,196.324 407.688,196.824 403.5,197C 400.898,197.935 399.398,199.768 399,202.5C 398.243,222.184 398.409,241.851 399.5,261.5C 397.511,239.859 396.844,217.859 397.5,195.5C 403.5,195.5 409.5,195.5 415.5,195.5 Z"/></g>
<g><path style="opacity:1" fill="#275320" d="M 271.5,183.5 C 273.95,183.874 274.95,185.374 274.5,188C 271.552,198.379 269.219,208.879 267.5,219.5C 265.551,226.35 263.217,233.017 260.5,239.5C 262.719,224.173 266.219,209.173 271,194.5C 271.498,191.518 271.665,188.518 271.5,185.5C 271.5,184.833 271.5,184.167 271.5,183.5 Z"/></g>
<g><path style="opacity:1" fill="#325f2b" d="M 169.5,181.5 C 170.208,183.378 171.374,185.045 173,186.5C 176.466,201.373 179.133,216.373 181,231.5C 181.638,234.601 182.805,237.268 184.5,239.5C 183.777,244.173 182.943,248.84 182,253.5C 181.667,252.833 181.333,252.167 181,251.5C 177.922,228.032 174.089,204.698 169.5,181.5 Z"/></g>
<g><path style="opacity:1" fill="#44a342" d="M 372.5,187.5 C 373.495,198.321 373.828,209.321 373.5,220.5C 372.668,237.328 372.168,254.328 372,271.5C 371.64,273.608 370.973,275.608 370,277.5C 369.641,274.456 368.974,274.122 368,276.5C 365.615,275.679 363.448,274.012 361.5,271.5C 361.963,265.483 359.629,261.15 354.5,258.5C 352.194,258.993 349.861,259.326 347.5,259.5C 338.443,260.884 329.443,260.551 320.5,258.5C 320.5,257.5 320.5,256.5 320.5,255.5C 319.448,255.649 318.448,255.483 317.5,255C 309.881,245.915 307.381,235.415 310,223.5C 310.712,217.517 313.545,212.85 318.5,209.5C 317.027,212.447 315.527,215.447 314,218.5C 313.503,220.81 313.337,223.143 313.5,225.5C 315.766,225.141 317.599,225.808 319,227.5C 334.941,225.853 351.107,224.853 367.5,224.5C 368.863,223.107 369.696,221.441 370,219.5C 370.333,220.833 370.667,222.167 371,223.5C 372.379,212.555 372.879,201.555 372.5,190.5C 372.5,189.5 372.5,188.5 372.5,187.5 Z"/></g>
<g><path style="opacity:1" fill="#47a442" d="M 438.5,239.5 C 436.156,250.011 429.823,256.844 419.5,260C 415.249,261.195 410.915,261.695 406.5,261.5C 406.161,249.447 405.827,237.28 405.5,225C 405.37,218.065 405.87,211.232 407,204.5C 410.301,204.499 413.801,204.666 417.5,205C 418.325,206.688 419.325,206.855 420.5,205.5C 424.517,207.607 428.684,209.607 433,211.5C 434.283,214.441 435.95,217.107 438,219.5C 438.5,226.158 438.666,232.825 438.5,239.5 Z"/></g>
<g><path style="opacity:1" fill="#48a443" d="M 144.5,178.5 C 147.629,192.811 150.629,207.144 153.5,221.5C 153.049,227.117 154.049,232.45 156.5,237.5C 155.351,241.825 155.351,245.825 156.5,249.5C 153.938,251.97 151.105,251.97 148,249.5C 146.036,252.698 144.37,256.032 143,259.5C 142.667,258.167 142.333,256.833 142,255.5C 141.683,257.301 141.016,257.634 140,256.5C 139.829,251.136 139.329,245.802 138.5,240.5C 137.859,236.629 136.359,235.962 134,238.5C 133.667,236.167 133.333,233.833 133,231.5C 132.809,233.708 132.309,235.708 131.5,237.5C 131.795,235.265 131.461,233.265 130.5,231.5C 130.5,218.833 130.5,206.167 130.5,193.5C 131.33,202.324 131.83,211.324 132,220.5C 133.378,216.612 134.378,212.612 135,208.5C 135.219,209.938 135.719,211.271 136.5,212.5C 137.324,209.215 137.824,205.882 138,202.5C 139.037,214.808 139.871,227.141 140.5,239.5C 141.177,228.939 141.844,218.439 142.5,208C 140.99,201.637 141.657,195.47 144.5,189.5C 143.281,185.68 143.281,182.013 144.5,178.5 Z"/></g>
<g><path style="opacity:1" fill="#3f893c" d="M 325.5,203.5 C 324.158,204.793 322.491,205.626 320.5,206C 319.177,206.816 318.511,207.983 318.5,209.5C 313.545,212.85 310.712,217.517 310,223.5C 307.381,235.415 309.881,245.915 317.5,255C 318.448,255.483 319.448,255.649 320.5,255.5C 320.5,256.5 320.5,257.5 320.5,258.5C 329.443,260.551 338.443,260.884 347.5,259.5C 346.391,260.29 345.058,260.79 343.5,261C 337.833,261.667 332.167,261.667 326.5,261C 321.277,260.389 316.943,258.222 313.5,254.5C 307.02,245.246 304.687,234.913 306.5,223.5C 308.317,219.129 310.483,214.795 313,210.5C 316.355,206.63 320.521,204.297 325.5,203.5 Z"/></g>
<g><path style="opacity:1" fill="#579553" d="M 380.5,178.5 C 378.735,179.461 376.735,179.795 374.5,179.5C 374.5,212.167 374.5,244.833 374.5,277.5C 373.503,258.674 373.17,239.674 373.5,220.5C 373.828,209.321 373.495,198.321 372.5,187.5C 372.336,184.813 372.503,182.146 373,179.5C 375.381,178.565 377.881,178.232 380.5,178.5 Z"/></g>
<g><path style="opacity:1" fill="#2f6528" d="M 415.5,195.5 C 427.508,197.316 435.174,203.982 438.5,215.5C 436.297,211.125 433.297,207.292 429.5,204C 421.537,200.664 413.204,199.664 404.5,201C 404,201.5 403.5,202 403,202.5C 402.5,222.164 402.333,241.831 402.5,261.5C 401.5,261.5 400.5,261.5 399.5,261.5C 398.409,241.851 398.243,222.184 399,202.5C 399.398,199.768 400.898,197.935 403.5,197C 407.688,196.824 411.688,196.324 415.5,195.5 Z"/></g>
<g><path style="opacity:1" fill="#204e20" d="M 463.5,213.5 C 464.793,214.842 465.626,216.509 466,218.5C 466.667,227.5 466.667,236.5 466,245.5C 464.206,252.963 461.04,259.796 456.5,266C 455.5,266.333 454.5,266.667 453.5,267C 449.919,272.315 444.919,275.148 438.5,275.5C 445.778,271.749 452.278,266.749 458,260.5C 458.584,256.005 460.251,252.005 463,248.5C 463.912,243.536 464.412,238.536 464.5,233.5C 464.664,226.798 464.331,220.131 463.5,213.5 Z"/></g>
<g><path style="opacity:1" fill="#2d552a" d="M 223.5,183.5 C 226.555,196.315 229.388,209.315 232,222.5C 233.322,227.965 235.156,233.299 237.5,238.5C 237.373,242.262 236.706,245.928 235.5,249.5C 230.86,227.609 226.86,205.609 223.5,183.5 Z"/></g>
<g><path style="opacity:1" fill="#294a28" d="M 271.5,185.5 C 271.665,188.518 271.498,191.518 271,194.5C 266.219,209.173 262.719,224.173 260.5,239.5C 258.049,252.37 255.049,265.036 251.5,277.5C 250.019,278.48 248.685,279.647 247.5,281C 239.386,281.886 231.386,281.386 223.5,279.5C 222.833,279.5 222.5,279.167 222.5,278.5C 230.833,278.5 239.167,278.5 247.5,278.5C 254.744,247.186 262.744,216.186 271.5,185.5 Z"/></g>
<g><path style="opacity:1" fill="#d2f9d0" d="M 380.5,178.5 C 382.5,178.5 384.5,178.5 386.5,178.5C 383.11,179.552 379.61,180.552 376,181.5C 375.833,197.5 375.667,213.5 375.5,229.5C 375.515,246.053 376.181,262.386 377.5,278.5C 376.833,278.5 376.167,278.5 375.5,278.5C 374.833,278.5 374.5,278.167 374.5,277.5C 374.5,244.833 374.5,212.167 374.5,179.5C 376.735,179.795 378.735,179.461 380.5,178.5 Z"/></g>
<g><path style="opacity:1" fill="#377e32" d="M 272.5,180.5 C 273.643,180.908 274.643,181.575 275.5,182.5C 276.615,190.147 275.448,197.48 272,204.5C 270.785,212.84 269.618,221.173 268.5,229.5C 265.286,235.345 263.452,241.678 263,248.5C 260.749,253.488 258.916,258.488 257.5,263.5C 259.349,253.781 261.515,244.115 264,234.5C 266.867,229.917 268.033,224.917 267.5,219.5C 269.219,208.879 271.552,198.379 274.5,188C 274.95,185.374 273.95,183.874 271.5,183.5C 271.557,182.391 271.89,181.391 272.5,180.5 Z"/></g>
<g><path style="opacity:1" fill="#2d6c2c" d="M 455.5,195.5 C 456.496,195.414 457.329,195.748 458,196.5C 461.747,201.717 464.747,207.384 467,213.5C 472.482,233.486 469.316,251.82 457.5,268.5C 452.311,270.841 447.478,273.841 443,277.5C 439.339,279.252 435.506,280.252 431.5,280.5C 431.5,280.167 431.5,279.833 431.5,279.5C 433.606,277.921 435.94,276.588 438.5,275.5C 444.919,275.148 449.919,272.315 453.5,267C 454.5,266.667 455.5,266.333 456.5,266C 461.04,259.796 464.206,252.963 466,245.5C 466.667,236.5 466.667,227.5 466,218.5C 465.626,216.509 464.793,214.842 463.5,213.5C 461.365,207.234 458.699,201.234 455.5,195.5 Z"/></g>
<g><path style="opacity:1" fill="#369a42" d="M 440.5,183.5 C 443.522,183.804 446.522,184.304 449.5,185C 451.743,187.488 453.743,190.154 455.5,193C 456.784,193.684 457.951,193.517 459,192.5C 461.849,195.418 464.682,198.418 467.5,201.5C 468.333,203.167 469.167,204.833 470,206.5C 470.333,206.167 470.667,205.833 471,205.5C 471.126,208.956 472.793,211.289 476,212.5C 479.06,210.884 479.227,208.884 476.5,206.5C 478.062,203.026 478.895,199.36 479,195.5C 479.067,201.098 479.901,206.431 481.5,211.5C 481.5,221.5 481.5,231.5 481.5,241.5C 480.797,260.36 480.13,279.36 479.5,298.5C 363.167,298.5 246.833,298.5 130.5,298.5C 130.5,276.167 130.5,253.833 130.5,231.5C 131.461,233.265 131.795,235.265 131.5,237.5C 131.547,253.142 131.88,268.809 132.5,284.5C 132.757,281.397 133.257,278.397 134,275.5C 133.704,279.653 134.704,283.653 137,287.5C 137.168,278.482 137.668,269.482 138.5,260.5C 139.262,268.51 139.928,276.51 140.5,284.5C 141.5,284.5 142.5,284.5 143.5,284.5C 143.5,283.5 143.5,282.5 143.5,281.5C 149.382,281.768 155.215,281.434 161,280.5C 162.168,281.509 163.335,282.509 164.5,283.5C 165.231,281.599 165.231,279.599 164.5,277.5C 166.739,280.649 169.072,283.816 171.5,287C 180.576,287.913 189.576,287.58 198.5,286C 200.317,284.2 201.484,282.034 202,279.5C 203.986,263.597 206.986,247.93 211,232.5C 212.042,236.759 212.875,241.093 213.5,245.5C 214.183,245.863 214.85,246.196 215.5,246.5C 218.21,257.185 220.543,267.851 222.5,278.5C 222.5,279.167 222.833,279.5 223.5,279.5C 225.09,281.234 227.09,282.4 229.5,283C 236.582,283.884 243.582,283.551 250.5,282C 251.667,280.167 252.833,278.333 254,276.5C 254.538,271.853 255.705,267.52 257.5,263.5C 258.916,258.488 260.749,253.488 263,248.5C 263.452,241.678 265.286,235.345 268.5,229.5C 269.058,227.211 270.224,225.211 272,223.5C 272.333,221.5 272.667,219.5 273,217.5C 273.893,216.289 274.726,216.289 275.5,217.5C 275.796,225.19 276.796,232.524 278.5,239.5C 280.142,248.129 283.476,256.129 288.5,263.5C 291.464,268.131 295.131,272.131 299.5,275.5C 300.29,276.794 301.29,277.961 302.5,279C 307.67,280.947 312.67,283.28 317.5,286C 330.997,288.413 344.331,287.913 357.5,284.5C 358.263,283.281 359.263,282.281 360.5,281.5C 361.417,278.242 361.751,274.909 361.5,271.5C 363.448,274.012 365.615,275.679 368,276.5C 368.974,274.122 369.641,274.456 370,277.5C 370.973,275.608 371.64,273.608 372,271.5C 372.168,254.328 372.668,237.328 373.5,220.5C 373.17,239.674 373.503,258.674 374.5,277.5C 374.5,278.167 374.833,278.5 375.5,278.5C 376.987,281.147 378.653,283.647 380.5,286C 393.833,286.667 407.167,286.667 420.5,286C 426.585,285.036 432.585,283.702 438.5,282C 442.221,279.473 446.221,277.473 450.5,276C 453.117,273.558 455.45,271.058 457.5,268.5C 469.316,251.82 472.482,233.486 467,213.5C 464.747,207.384 461.747,201.717 458,196.5C 457.329,195.748 456.496,195.414 455.5,195.5C 452.455,192.453 449.122,189.787 445.5,187.5C 444.016,185.926 442.349,184.593 440.5,183.5 Z"/></g>
<g><path style="opacity:1" fill="#3a9f42" d="M 156.5,249.5 C 157.497,249.47 158.164,249.97 158.5,251C 157.453,252.578 157.453,254.078 158.5,255.5C 159.425,254.359 160.259,254.359 161,255.5C 161.464,260.956 161.131,266.289 160,271.5C 160.915,270.672 161.581,269.672 162,268.5C 162.396,271.657 163.229,274.657 164.5,277.5C 165.231,279.599 165.231,281.599 164.5,283.5C 163.335,282.509 162.168,281.509 161,280.5C 155.215,281.434 149.382,281.768 143.5,281.5C 143.5,282.5 143.5,283.5 143.5,284.5C 142.5,284.5 141.5,284.5 140.5,284.5C 139.928,276.51 139.262,268.51 138.5,260.5C 137.668,269.482 137.168,278.482 137,287.5C 134.704,283.653 133.704,279.653 134,275.5C 133.257,278.397 132.757,281.397 132.5,284.5C 131.88,268.809 131.547,253.142 131.5,237.5C 132.309,235.708 132.809,233.708 133,231.5C 133.333,233.833 133.667,236.167 134,238.5C 136.359,235.962 137.859,236.629 138.5,240.5C 139.329,245.802 139.829,251.136 140,256.5C 141.016,257.634 141.683,257.301 142,255.5C 142.333,256.833 142.667,258.167 143,259.5C 144.37,256.032 146.036,252.698 148,249.5C 151.105,251.97 153.938,251.97 156.5,249.5 Z"/></g>
<g><path style="opacity:1" fill="#254826" d="M 210.5,223.5 C 208.386,224.36 207.22,226.027 207,228.5C 204.219,245.885 200.385,262.885 195.5,279.5C 194.692,279.808 194.025,280.308 193.5,281C 185.993,282.01 178.66,281.51 171.5,279.5C 171.5,279.167 171.5,278.833 171.5,278.5C 178.833,278.5 186.167,278.5 193.5,278.5C 198.426,254.878 203.26,231.211 208,207.5C 209.52,212.645 210.353,217.978 210.5,223.5 Z"/></g>
<g><path style="opacity:1" fill="#224225" d="M 464.5,233.5 C 464.412,238.536 463.912,243.536 463,248.5C 460.251,252.005 458.584,256.005 458,260.5C 452.278,266.749 445.778,271.749 438.5,275.5C 435.94,276.588 433.606,277.921 431.5,279.5C 417.593,281.482 403.593,281.982 389.5,281C 396.346,280.828 403.013,280.328 409.5,279.5C 417.967,278.801 426.3,277.301 434.5,275C 452.44,266.968 462.44,253.135 464.5,233.5 Z"/></g>
<g><path style="opacity:1" fill="#246429" d="M 210.5,223.5 C 211.404,224.209 211.737,225.209 211.5,226.5C 206.342,243.112 202.509,260.112 200,277.5C 196.546,282.934 191.546,284.934 185,283.5C 181.136,283.428 177.302,283.095 173.5,282.5C 172.833,282.167 172.167,281.833 171.5,281.5C 170.45,280.571 170.45,279.905 171.5,279.5C 178.66,281.51 185.993,282.01 193.5,281C 194.025,280.308 194.692,279.808 195.5,279.5C 200.385,262.885 204.219,245.885 207,228.5C 207.22,226.027 208.386,224.36 210.5,223.5 Z"/></g>
<g><path style="opacity:1" fill="#24662a" d="M 267.5,219.5 C 268.033,224.917 266.867,229.917 264,234.5C 261.515,244.115 259.349,253.781 257.5,263.5C 255.705,267.52 254.538,271.853 254,276.5C 252.833,278.333 251.667,280.167 250.5,282C 243.582,283.551 236.582,283.884 229.5,283C 227.09,282.4 225.09,281.234 223.5,279.5C 231.386,281.386 239.386,281.886 247.5,281C 248.685,279.647 250.019,278.48 251.5,277.5C 255.049,265.036 258.049,252.37 260.5,239.5C 263.217,233.017 265.551,226.35 267.5,219.5 Z"/></g>
<g><path style="opacity:1" fill="#388e40" d="M 153.5,221.5 C 158.294,240.344 162.961,259.344 167.5,278.5C 168.833,278.5 170.167,278.5 171.5,278.5C 171.5,278.833 171.5,279.167 171.5,279.5C 170.45,279.905 170.45,280.571 171.5,281.5C 172.167,281.833 172.833,282.167 173.5,282.5C 177.302,283.095 181.136,283.428 185,283.5C 191.546,284.934 196.546,282.934 200,277.5C 202.509,260.112 206.342,243.112 211.5,226.5C 213.247,232.96 214.581,239.627 215.5,246.5C 214.85,246.196 214.183,245.863 213.5,245.5C 212.875,241.093 212.042,236.759 211,232.5C 206.986,247.93 203.986,263.597 202,279.5C 201.484,282.034 200.317,284.2 198.5,286C 189.576,287.58 180.576,287.913 171.5,287C 169.072,283.816 166.739,280.649 164.5,277.5C 163.229,274.657 162.396,271.657 162,268.5C 161.581,269.672 160.915,270.672 160,271.5C 161.131,266.289 161.464,260.956 161,255.5C 160.259,254.359 159.425,254.359 158.5,255.5C 157.453,254.078 157.453,252.578 158.5,251C 158.164,249.97 157.497,249.47 156.5,249.5C 155.351,245.825 155.351,241.825 156.5,237.5C 154.049,232.45 153.049,227.117 153.5,221.5 Z"/></g>
<g><path style="opacity:1" fill="#438a4b" d="M 129.5,166.5 C 130.167,166.5 130.833,166.5 131.5,166.5C 130.962,168.117 130.629,169.784 130.5,171.5C 130.5,178.833 130.5,186.167 130.5,193.5C 130.5,206.167 130.5,218.833 130.5,231.5C 130.5,253.833 130.5,276.167 130.5,298.5C 246.833,298.5 363.167,298.5 479.5,298.5C 480.13,279.36 480.797,260.36 481.5,241.5C 481.5,260.833 481.5,280.167 481.5,299.5C 364.167,299.5 246.833,299.5 129.5,299.5C 129.5,255.167 129.5,210.833 129.5,166.5 Z"/></g>
<g><path style="opacity:1" fill="#2a7e36" d="M 354.5,259.5 C 354.5,259.167 354.5,258.833 354.5,258.5C 359.629,261.15 361.963,265.483 361.5,271.5C 361.751,274.909 361.417,278.242 360.5,281.5C 359.263,282.281 358.263,283.281 357.5,284.5C 344.331,287.913 330.997,288.413 317.5,286C 312.67,283.28 307.67,280.947 302.5,279C 301.29,277.961 300.29,276.794 299.5,275.5C 305.99,277.966 312.657,279.966 319.5,281.5C 319.5,281.833 319.5,282.167 319.5,282.5C 323.445,283.825 327.778,284.492 332.5,284.5C 340.194,284.409 347.861,283.909 355.5,283C 357.282,282.186 358.782,281.019 360,279.5C 361.337,271.873 359.503,265.206 354.5,259.5 Z"/></g>
<g><path style="opacity:1" fill="#2b7e36" d="M 457.5,268.5 C 455.45,271.058 453.117,273.558 450.5,276C 446.221,277.473 442.221,279.473 438.5,282C 432.585,283.702 426.585,285.036 420.5,286C 407.167,286.667 393.833,286.667 380.5,286C 378.653,283.647 376.987,281.147 375.5,278.5C 376.167,278.5 376.833,278.5 377.5,278.5C 378.457,281.168 380.457,282.668 383.5,283C 399.64,284.131 415.64,283.297 431.5,280.5C 435.506,280.252 439.339,279.252 443,277.5C 447.478,273.841 452.311,270.841 457.5,268.5 Z"/></g>
<g><path style="opacity:1" fill="#265a2c" d="M 377.5,278.5 C 388.143,279.345 398.81,279.679 409.5,279.5C 403.013,280.328 396.346,280.828 389.5,281C 403.593,281.982 417.593,281.482 431.5,279.5C 431.5,279.833 431.5,280.167 431.5,280.5C 415.64,283.297 399.64,284.131 383.5,283C 380.457,282.668 378.457,281.168 377.5,278.5 Z"/></g>
<g><path style="opacity:1" fill="#1d4a23" d="M 356.5,276.5 C 355.797,278.716 354.464,280.549 352.5,282C 341.512,283.676 330.512,283.843 319.5,282.5C 319.5,282.167 319.5,281.833 319.5,281.5C 319.5,281.167 319.5,280.833 319.5,280.5C 332.102,281.315 344.435,279.981 356.5,276.5 Z"/></g>
<g><path style="opacity:1" fill="#225e28" d="M 354.5,259.5 C 359.503,265.206 361.337,271.873 360,279.5C 358.782,281.019 357.282,282.186 355.5,283C 347.861,283.909 340.194,284.409 332.5,284.5C 327.778,284.492 323.445,283.825 319.5,282.5C 330.512,283.843 341.512,283.676 352.5,282C 354.464,280.549 355.797,278.716 356.5,276.5C 357.043,276.44 357.376,276.107 357.5,275.5C 355.862,270.283 354.862,264.95 354.5,259.5 Z"/></g>
<g><path style="opacity:1" fill="#306036" d="M 288.5,263.5 C 297.011,272.587 307.344,278.254 319.5,280.5C 319.5,280.833 319.5,281.167 319.5,281.5C 312.657,279.966 305.99,277.966 299.5,275.5C 295.131,272.131 291.464,268.131 288.5,263.5 Z"/></g>
<g><path style="opacity:0.998" fill="#f6fbf7" d="M 129.5,299.5 C 246.833,299.5 364.167,299.5 481.5,299.5C 481.5,311.833 481.5,324.167 481.5,336.5C 364.5,336.5 247.5,336.5 130.5,336.5C 130.167,336.5 129.833,336.5 129.5,336.5C 129.5,324.167 129.5,311.833 129.5,299.5 Z"/></g>
<g><path style="opacity:1" fill="#427b4e" d="M 190.5,309.5 C 192.833,309.5 195.167,309.5 197.5,309.5C 197.5,310.833 197.5,312.167 197.5,313.5C 188.513,312.665 186.18,316.165 190.5,324C 192.81,324.497 195.143,324.663 197.5,324.5C 197.5,325.5 197.5,326.5 197.5,327.5C 185.003,328.854 181.17,323.854 186,312.5C 187.652,311.601 189.152,310.601 190.5,309.5 Z"/></g>
<g><path style="opacity:1" fill="#437b4d" d="M 419.5,309.5 C 421.833,309.5 424.167,309.5 426.5,309.5C 426.5,310.833 426.5,312.167 426.5,313.5C 417.01,312.138 414.343,315.638 418.5,324C 420.81,324.497 423.143,324.663 425.5,324.5C 425.5,325.5 425.5,326.5 425.5,327.5C 415.956,329.521 411.456,325.855 412,316.5C 413.211,312.666 415.711,310.333 419.5,309.5 Z"/></g>
<g><path style="opacity:1" fill="#84b18d" d="M 176.5,310.5 C 173.167,310.5 169.833,310.5 166.5,310.5C 166.5,316.167 166.5,321.833 166.5,327.5C 165.51,321.69 165.177,315.69 165.5,309.5C 169.371,309.185 173.038,309.518 176.5,310.5 Z"/></g>
<g><path style="opacity:1" fill="#3c7747" d="M 208.5,309.5 C 218.655,308.83 222.489,313.496 220,323.5C 214.593,328.765 209.26,328.765 204,323.5C 203.333,320.5 203.333,317.5 204,314.5C 205.193,312.503 206.693,310.836 208.5,309.5 Z"/></g>
<g><path style="opacity:1" fill="#f3fbf2" d="M 209.5,313.5 C 215.499,313.002 217.666,315.669 216,321.5C 214.695,324.306 212.528,325.14 209.5,324C 206.868,320.432 206.868,316.932 209.5,313.5 Z"/></g>
<g><path style="opacity:1" fill="#3c7b47" d="M 287.5,309.5 C 288.833,309.5 290.167,309.5 291.5,309.5C 291.5,315.5 291.5,321.5 291.5,327.5C 290.167,327.5 288.833,327.5 287.5,327.5C 287.5,321.5 287.5,315.5 287.5,309.5 Z"/></g>
<g><path style="opacity:1" fill="#3c7848" d="M 327.5,309.5 C 330.187,309.336 332.854,309.503 335.5,310C 336.337,311.011 336.67,312.178 336.5,313.5C 327.094,311.399 323.927,314.732 327,323.5C 329.041,324.423 331.208,324.756 333.5,324.5C 333.5,323.167 333.5,321.833 333.5,320.5C 332.5,320.5 331.5,320.5 330.5,320.5C 330.5,319.5 330.5,318.5 330.5,317.5C 332.833,317.5 335.167,317.5 337.5,317.5C 337.784,320.777 337.451,323.943 336.5,327C 325.294,329.781 320.461,325.614 322,314.5C 323.73,312.598 325.563,310.931 327.5,309.5 Z"/></g>
<g><path style="opacity:1" fill="#3e7947" d="M 373.5,309.5 C 378.118,308.924 382.285,309.924 386,312.5C 387.214,319.124 384.38,322.124 377.5,321.5C 377.5,323.5 377.5,325.5 377.5,327.5C 376.167,327.5 374.833,327.5 373.5,327.5C 373.5,321.5 373.5,315.5 373.5,309.5 Z"/></g>
<g><path style="opacity:1" fill="#eafbf1" d="M 377.5,313.5 C 381.676,312.831 383.009,314.331 381.5,318C 380.207,318.49 378.873,318.657 377.5,318.5C 377.5,316.833 377.5,315.167 377.5,313.5 Z"/></g>
<g><path style="opacity:1" fill="#3d7949" d="M 395.5,309.5 C 397.604,309.201 399.604,309.534 401.5,310.5C 403.374,316.12 405.041,321.787 406.5,327.5C 404.042,327.773 402.375,326.773 401.5,324.5C 399.604,323.534 397.604,323.201 395.5,323.5C 395.616,326.91 393.95,328.244 390.5,327.5C 392.164,321.512 393.831,315.512 395.5,309.5 Z"/></g>
<g><path style="opacity:1" fill="#447e4f" d="M 143.5,309.5 C 154.042,307.886 158.876,312.219 158,322.5C 157.535,323.931 156.701,325.097 155.5,326C 151.27,327.29 146.936,327.79 142.5,327.5C 142.211,321.409 142.545,315.409 143.5,309.5 Z"/></g>
<g><path style="opacity:1" fill="#3a7746" d="M 176.5,310.5 C 176.5,311.5 176.5,312.5 176.5,313.5C 174.5,313.5 172.5,313.5 170.5,313.5C 170.5,314.833 170.5,316.167 170.5,317.5C 172.5,317.5 174.5,317.5 176.5,317.5C 176.5,318.5 176.5,319.5 176.5,320.5C 174.5,320.5 172.5,320.5 170.5,320.5C 170.5,321.833 170.5,323.167 170.5,324.5C 172.833,324.5 175.167,324.5 177.5,324.5C 177.5,325.5 177.5,326.5 177.5,327.5C 173.833,327.5 170.167,327.5 166.5,327.5C 166.5,321.833 166.5,316.167 166.5,310.5C 169.833,310.5 173.167,310.5 176.5,310.5 Z"/></g>
<g><path style="opacity:1" fill="#e0f8dd" d="M 397.5,314.5 C 399.043,315.736 400.043,317.402 400.5,319.5C 399.311,320.429 397.978,320.762 396.5,320.5C 396.833,318.5 397.167,316.5 397.5,314.5 Z"/></g>
<g><path style="opacity:1" fill="#3f7948" d="M 357.5,309.5 C 359.527,309.338 361.527,309.505 363.5,310C 364.337,311.011 364.67,312.178 364.5,313.5C 362.5,313.5 360.5,313.5 358.5,313.5C 358.281,314.675 358.614,315.675 359.5,316.5C 365.697,318.221 367.03,321.721 363.5,327C 360.518,327.498 357.518,327.665 354.5,327.5C 354.5,326.5 354.5,325.5 354.5,324.5C 356.833,324.5 359.167,324.5 361.5,324.5C 361.649,323.448 361.483,322.448 361,321.5C 352.937,319.109 351.77,315.109 357.5,309.5 Z"/></g>
<g><path style="opacity:1" fill="#f3fbf2" d="M 147.5,313.5 C 154.559,314.139 156.225,317.639 152.5,324C 150.866,324.494 149.199,324.66 147.5,324.5C 147.5,320.833 147.5,317.167 147.5,313.5 Z"/></g>
<g><path style="opacity:1" fill="#3d7849" d="M 299.5,327.5 C 299.5,321.833 299.5,316.167 299.5,310.5C 301.167,310.5 302.833,310.5 304.5,310.5C 306.067,313.967 307.901,317.3 310,320.5C 310.499,316.848 310.665,313.182 310.5,309.5C 311.833,309.5 313.167,309.5 314.5,309.5C 314.5,315.5 314.5,321.5 314.5,327.5C 312.712,327.785 311.045,327.452 309.5,326.5C 306.829,323.163 304.663,319.496 303,315.5C 302.501,319.486 302.334,323.486 302.5,327.5C 301.5,327.5 300.5,327.5 299.5,327.5 Z"/></g>
<g><path style="opacity:1" fill="#407a4a" d="M 227.5,309.5 C 231.876,309.114 236.043,309.781 240,311.5C 240.895,314.466 240.395,317.133 238.5,319.5C 239.695,321.751 240.695,324.085 241.5,326.5C 239.955,327.452 238.288,327.785 236.5,327.5C 236.983,323.423 235.316,321.09 231.5,320.5C 231.5,322.833 231.5,325.167 231.5,327.5C 230.167,327.5 228.833,327.5 227.5,327.5C 227.5,321.5 227.5,315.5 227.5,309.5 Z"/></g>
<g><path style="opacity:1" fill="#dcf1df" d="M 231.5,312.5 C 235.909,311.899 237.242,313.566 235.5,317.5C 234.264,318.246 232.93,318.579 231.5,318.5C 231.5,316.5 231.5,314.5 231.5,312.5 Z"/></g>
<g><path style="opacity:1" fill="#3e7a48" d="M 266.5,309.5 C 271.167,309.5 275.833,309.5 280.5,309.5C 280.5,310.833 280.5,312.167 280.5,313.5C 278.833,313.5 277.167,313.5 275.5,313.5C 275.5,318.167 275.5,322.833 275.5,327.5C 274.167,327.5 272.833,327.5 271.5,327.5C 271.5,322.833 271.5,318.167 271.5,313.5C 269.833,313.5 268.167,313.5 266.5,313.5C 266.5,312.167 266.5,310.833 266.5,309.5 Z"/></g>
<g><path style="opacity:1" fill="#417b4b" d="M 433.5,309.5 C 437.167,309.5 440.833,309.5 444.5,309.5C 444.5,310.833 444.5,312.167 444.5,313.5C 442.167,313.5 439.833,313.5 437.5,313.5C 437.5,314.833 437.5,316.167 437.5,317.5C 439.5,317.5 441.5,317.5 443.5,317.5C 443.5,318.5 443.5,319.5 443.5,320.5C 441.5,320.5 439.5,320.5 437.5,320.5C 437.5,321.833 437.5,323.167 437.5,324.5C 439.833,324.5 442.167,324.5 444.5,324.5C 444.5,325.5 444.5,326.5 444.5,327.5C 440.833,327.5 437.167,327.5 433.5,327.5C 433.5,321.5 433.5,315.5 433.5,309.5 Z"/></g>
<g><path style="opacity:1" fill="#3b7749" d="M 252.5,309.5 C 254.5,309.5 256.5,309.5 258.5,309.5C 259.661,315.482 261.328,321.315 263.5,327C 261.866,327.494 260.199,327.66 258.5,327.5C 258.67,326.178 258.337,325.011 257.5,324C 255.527,323.505 253.527,323.338 251.5,323.5C 251.5,324.833 251.5,326.167 251.5,327.5C 250.167,327.5 248.833,327.5 247.5,327.5C 248.757,321.395 250.423,315.395 252.5,309.5 Z"/></g>
<g><path style="opacity:1" fill="#d8f5dc" d="M 254.5,313.5 C 256.163,315.438 256.829,317.772 256.5,320.5C 255.5,320.5 254.5,320.5 253.5,320.5C 253.674,318.139 254.007,315.806 254.5,313.5 Z"/></g>
<g><path style="opacity:1" fill="#9ab5a0" d="M 304.5,310.5 C 302.833,310.5 301.167,310.5 299.5,310.5C 299.5,316.167 299.5,321.833 299.5,327.5C 298.51,321.69 298.177,315.69 298.5,309.5C 300.735,309.205 302.735,309.539 304.5,310.5 Z"/></g>
<g><path style="opacity:1" fill="#407849" d="M 455.5,309.5 C 457.591,309.318 459.591,309.652 461.5,310.5C 462.386,311.325 462.719,312.325 462.5,313.5C 460.5,313.5 458.5,313.5 456.5,313.5C 456.281,314.675 456.614,315.675 457.5,316.5C 463.927,318.717 464.927,322.217 460.5,327C 457.518,327.498 454.518,327.665 451.5,327.5C 451.5,326.5 451.5,325.5 451.5,324.5C 454.167,324.5 456.833,324.5 459.5,324.5C 459.719,323.325 459.386,322.325 458.5,321.5C 450.523,318.932 449.523,314.932 455.5,309.5 Z"/></g>
<g><path style="opacity:1" fill="#23673b" d="M 130.5,336.5 C 247.5,336.5 364.5,336.5 481.5,336.5C 481.831,357.34 481.497,378.007 480.5,398.5C 480.5,378.167 480.5,357.833 480.5,337.5C 363.665,337.833 246.999,337.5 130.5,336.5 Z"/></g>
<g><path style="opacity:1" fill="#24864a" d="M 129.5,336.5 C 129.833,336.5 130.167,336.5 130.5,336.5C 246.999,337.5 363.665,337.833 480.5,337.5C 480.5,357.833 480.5,378.167 480.5,398.5C 480.167,401.5 478.5,403.167 475.5,403.5C 361.999,403.833 248.665,403.5 135.5,402.5C 248.167,402.667 360.834,402.5 473.5,402C 475.351,401.163 477.184,400.329 479,399.5C 479.5,385.837 479.667,372.171 479.5,358.5C 479.5,351.833 479.5,345.167 479.5,338.5C 364.833,338.5 250.167,338.5 135.5,338.5C 133.833,338.5 132.167,338.5 130.5,338.5C 130.5,358.5 130.5,378.5 130.5,398.5C 129.503,378.007 129.169,357.34 129.5,336.5 Z"/></g>
<g><path style="opacity:1" fill="#1b9044" d="M 135.5,338.5 C 250.167,338.5 364.833,338.5 479.5,338.5C 479.5,345.167 479.5,351.833 479.5,358.5C 367.193,358.832 255.026,359.832 143,361.5C 142.718,357.512 141.885,353.679 140.5,350C 143.044,348.225 143.044,346.392 140.5,344.5C 138.929,345.309 137.262,345.643 135.5,345.5C 135.5,343.167 135.5,340.833 135.5,338.5 Z"/></g>
<g><path style="opacity:1" fill="#108c44" d="M 135.5,338.5 C 135.5,340.833 135.5,343.167 135.5,345.5C 137.262,345.643 138.929,345.309 140.5,344.5C 143.044,346.392 143.044,348.225 140.5,350C 141.885,353.679 142.718,357.512 143,361.5C 255.026,359.832 367.193,358.832 479.5,358.5C 479.667,372.171 479.5,385.837 479,399.5C 477.184,400.329 475.351,401.163 473.5,402C 360.834,402.5 248.167,402.667 135.5,402.5C 133.589,401.925 131.922,400.925 130.5,399.5C 130.5,399.167 130.5,398.833 130.5,398.5C 130.5,378.5 130.5,358.5 130.5,338.5C 132.167,338.5 133.833,338.5 135.5,338.5 Z"/></g>
<g><path style="opacity:0.133" fill="#276a45" d="M 130.5,399.5 C 131.922,400.925 133.589,401.925 135.5,402.5C 248.665,403.5 361.999,403.833 475.5,403.5C 362.001,404.666 248.334,404.833 134.5,404C 132.249,403.252 130.916,401.752 130.5,399.5 Z"/></g>
</svg>